{"title":"Humshakals (2014) DvDScr Rip Xvid {VikkyMaxx}[SilverRG]","uid":10399504,"size":735197161,"categoryP":"video","categoryS":"movies","magnet":"?xt=urn:btih:b77d8b8f9b40d50748d1ef78175536f98a632672&amp;dn=Humshakals+%282014%29+DvDScr+Rip+Xvid+%7BVikkyMaxx%7D%5BSilverRG%5D&amp;tr=udp%3A%2F%2Ftracker.openbittorrent.com%3A80&amp;tr=udp%3A%2F%2Fopen.demonii.com%3A1337&amp;tr=udp%3A%2F%2Ftracker.coppersurfer.tk%3A6969&amp;tr=udp%3A%2F%2Fexodus.desync.com%3A6969","seeders":3,"leechers":0,"uploader":"shailendramaxx","files":23,"time":1403331179,"description":"VikkyMaxx SilverRG Presents:-\n\n\n\nGeneral:-\n \nComplete name :Humshakals(2014)DvDScr Rip Xvid {VikkyMaxx}[SilverRG]\nFormat : AVI \nFormat/Info : Audio Video Interleave \nFile size : 690 MiB \nDuration : 2h 25mn \nOverall bit rate : 665 Kbps \n\nVideo:-\n \nID : 0 \nFormat : MPEG-4 Visual \nFormat profile : Advanced Simple@L5 \nFormat settings, BVOP : 2 \nFormat settings, QPel : No \nFormat settings, GMC : No warppoints \nFormat settings, Matrix : Default (H.263) \nCodec ID : XVID \nCodec ID/Hint : XviD \nDuration : 2h 25mn \nBit rate : 529 Kbps \nWidth : 640 pixels \nHeight : 272 pixels \nDisplay aspect ratio : 2.35:1 \nFrame rate : 29.970 fps \nColor space : YUV \nChroma subsampling : 4:2:0 \nBit depth : 8 bits \nScan type : Progressive \nCompression mode : Lossy \nBits/(Pixel*Frame) : 0.101 \nStream size : 549 MiB (80%) \nWriting library : XviD 1.2.1 (UTC 2008-12-04) \n\nAudio:-\n \nID : 1 \nFormat : MPEG Audio \nFormat version : Version 1 \nFormat profile : Layer 3 \nMode : Joint stereo \nMode extension : MS Stereo \nCodec ID : 55 \nCodec ID/Hint : MP3 \nDuration : 2h 25mn \nBit rate mode : Constant \nBit rate : 128 Kbps \nChannel(s) : 2 channels \nSampling rate : 48.0 KHz \nCompression mode : Lossy \nStream size : 133 MiB (19%) \nAlignment : Aligned on interleaves \nInterleave, duration : 133 ms (4.00 video frames) \nInterleave, preload duration : 216 ms \nTitle : humshakal T80 2_0ch 192Kbps DELAY 0ms \nWriting library : LAME3.99r \nEncoding settings : -m j -V 4 -q 2 -lowpass 17 -b 128 \nLanguage : Hindi \n\n\nSCREENS:-\n\n &lt;a href=&quot;\nhttp://i.imgur.com/Zb73tDe.png&quot; rel=&quot;nofollow&quot; target=&quot;_NEW&quot;&gt;\nhttp://i.imgur.com/Zb73tDe.png&lt;/a&gt;\n &lt;a href=&quot;\nhttp://i.imgur.com/0clW7Ws.png&quot; rel=&quot;nofollow&quot; target=&quot;_NEW&quot;&gt;\nhttp://i.imgur.com/0clW7Ws.png&lt;/a&gt;\n &lt;a href=&quot;\nhttp://i.imgur.com/j1qqFWK.png&quot; rel=&quot;nofollow&quot; target=&quot;_NEW&quot;&gt;\nhttp://i.imgur.com/j1qqFWK.png&lt;/a&gt;\n &lt;a href=&quot;\nhttp://i.imgur.com/J9IifWs.png&quot; rel=&quot;nofollow&quot; target=&quot;_NEW&quot;&gt;\nhttp://i.imgur.com/J9IifWs.png&lt;/a&gt;\n &lt;a href=&quot;\nhttp://i.imgur.com/U39RrVY.png&quot; rel=&quot;nofollow&quot; target=&quot;_NEW&quot;&gt;\nhttp://i.imgur.com/U39RrVY.png&lt;/a&gt;\n &lt;a href=&quot;\nhttp://i.imgur.com/VtyjV2f.png&quot; rel=&quot;nofollow&quot; target=&quot;_NEW&quot;&gt;\nhttp://i.imgur.com/VtyjV2f.png&lt;/a&gt;\n &lt;a href=&quot;\nhttp://i.imgur.com/LlfQWBJ.png&quot; rel=&quot;nofollow&quot; target=&quot;_NEW&quot;&gt;\nhttp://i.imgur.com/LlfQWBJ.png&lt;/a&gt;\n &lt;a href=&quot;\nhttp://i.imgur.com/MaF50mz.png&quot; rel=&quot;nofollow&quot; target=&quot;_NEW&quot;&gt;\nhttp://i.imgur.com/MaF50mz.png&lt;/a&gt;\n &lt;a href=&quot;\nhttp://i.imgur.com/vIUjZGj.png&quot; rel=&quot;nofollow&quot; target=&quot;_NEW&quot;&gt;\nhttp://i.imgur.com/vIUjZGj.png&lt;/a&gt;\n &lt;a href=&quot;\nhttp://i.imgur.com/wciGUud.png&quot; rel=&quot;nofollow&quot; target=&quot;_NEW&quot;&gt;\nhttp://i.imgur.com/wciGUud.png&lt;/a&gt;\n &lt;a href=&quot;\nhttp://i.imgur.com/ioukNRk.png&quot; rel=&quot;nofollow&quot; target=&quot;_NEW&quot;&gt;\nhttp://i.imgur.com/ioukNRk.png&lt;/a&gt;\n\n\nSAMPLE AND SCREENSHOTS INCLUDED\n\n    \n             \n             ********** PLEASE SEED AS LONG AS YOU CAN AFTER DOWNLOAD **********\n       \n                    ***** THANK YOU REGARDS - VIKKYMAXX (SilverRG) *****\n                                        \t\t\n","torrent":{"xt":"urn:btih:b77d8b8f9b40d50748d1ef78175536f98a632672","amp;dn":"Humshakals+%282014%29+DvDScr+Rip+Xvid+%7BVikkyMaxx%7D%5BSilverRG%5D","amp;tr":["udp%3A%2F%2Ftracker.openbittorrent.com%3A80","udp%3A%2F%2Fopen.demonii.com%3A1337","udp%3A%2F%2Ftracker.coppersurfer.tk%3A6969","udp%3A%2F%2Fexodus.desync.com%3A6969"],"infoHash":"b77d8b8f9b40d50748d1ef78175536f98a632672","infoHashBuffer":{"type":"Buffer","data":[183,125,139,143,155,64,213,7,72,209,239,120,23,85,54,249,138,99,38,114]},"announce":[],"urlList":[]}}